/* XPM */
static char *_c043cbfbed24ed3e745753dcd1f892914DpEpy6xhs7f9Zv[] = {
/* columns rows colors chars-per-pixel */
"64 64 16 1 ",
"  c gray11",
". c #202020",
"X c #282828",
"o c #2C2C2C",
"O c #00007C",
"+ c #000088",
"@ c #000098",
"# c #0000A4",
"$ c #0000A8",
"% c #0000B0",
"& c #0000BC",
"* c #0000C8",
"= c #0000D4",
"- c #0000E0",
"; c #0000EC",
": c #2024FC",
/* pixels */
"oooooooooooooooooooooooooooooooooooooooooooooooooooooooooooooooo",
"+$*@@*&$-%@%$@Xoo@*$%$$$%$#&@@@@%%+%@@@@&*@@@%Xoo@@@%%@@&O@@%&&*",
"&&@&&@&@*@*%@@.oo*&@#&$$%@*%$@*@$@#*%%@&*@$%=$.oo+@%@%@%@&@+&@#@",
"*@&$@$&;@%*$&@.oo&@@%@$$%%@%***@$&%@@*@&&&&@%$.oo%@%+%@%&%&*@&%-",
"=@@$@*&%@$&&@#.oo%%&%%*%$%%$$@@**%&@+@@%@$@*%@.oo@$+*++*@@&&@@@$",
"@@@@#&@@$@&@*@.oo&&@%%@@&@&=$*&@%@%@@+%@@@$@%@.oo@@%@@@@&%&&%&&&",
"**%=%$&$%$&=&$.oo=*%&**&$&&@@*@&$+&$$@@$@$+$%@.oo@@@*@&$*=-&=:&=",
"&&$@-$&%@*@@*$.oo@%&&&&&%@$*%@O$+@@$+@$@$$@@@@.oo&%&&&@*==$--@&=",
"$@%%&&@&&$@&*$.oo%&*$$==%%=O@&O@@%@%&@@@@%$++@.oo%&*==-%@@-=%@&-",
"               oo                              oo               ",
"XXXXXXXXXXXXXXXooXXXXXXXXXXXXXXXXXXXXXXXXXXXXXXoXXXXXXXXXXXXXXXX",
"oOO@$+@@&*&@@@@&@@%+@@$%+@*%@%Xoo$&&$=&%=&&=&==&@&&*$*%@&@%%%*Xo",
"o%@@@@@@@@%@&@@@@@@$$@@@*@%%@&.oo@&&-:==$-$@$*$;@*%=%@-&&&%&&@.o",
"o@$@@@+&&@&@&%@&@$$$$%@%&$%%=-.oo*%:*=%$@@=-$%$%&&@%=&%%%@&%@&.o",
"o=&%*@&&%$&%&@@%%%&@%%&@@&$*&&.oo**&$$$%@&&$%%&*&&@&$@@@$***&@.o",
"o:=--&$---*--&*-=*&$@%&=$%*-:&.oo&&=@%%=%@&@&%&%&&&&$&&&*%*%@@.o",
"o*-*&--&=-&=@$@-&=---:%:*:=%@-.oo&=%&@%@@@@%&@@&&@&@&=&-&&$=&%.o",
"o=&--=&-&=%*=-=*%@@$&:*-*:=&@&.oo*&=%-@&=%*$@$-%&=&*--%:$:&:*:.o",
"o=-&=****%%$-&$-&*%$*;*&--&%==.oo$$--*&@*@@*@=*-:::---*::-&::-.o",
"o===*&%*$=-*&@-&*%=&-&=-%@=:&-.oo$@=%$%$=&-&=%&==**:=:=&&=%&=$.o",
"o                              oo                              o",
"oXXXXXXXXXXXXXXXXXXXXXXXXXXXXXXooXXXXXXXXXXXXXXXXXXXXXXXXXXXXXXo",
"=*--$%%*-==@&=Xoo*%@$-%&&-*&=-&-=&*&&-&$&-:@&%Xoo&@*@&@-*&$&%*&%",
"=-&:=:*;=&&&%-.oo&$*%&$;*:*-&&*%--=-$&@-%-=*$%.oo%@@&%=%*&@%*&*=",
":$@=&---&==--*.oo&&-:::--%%*==-&%&&@@&*@$=%@&%.oo&@%$&&-&$&&&%*$",
"====*:---=$&&$.oo=--$*&%&*$&&**-%&&***%&@&@@@&.oo&@--&%**%$%&-$&",
"-:$%*::&&&*&&;.oo&&@***&-%&*%=-&$**@=@==$%&&&@.oo&*-%**&$$%&@$&@",
"&&=*=-*@@@@*&&.oo@=%*%&@&&%-=%&=&&*&=&%*%*@&*$.oo@$*$@@@%@%@*@@+",
"$-@*=-@@@*$%&*.oo&*=%**&%-$-%*@*$*&@&%%&@$&*$&.oo@$*$@*@+%@$+&O%",
"@%&*&&$$&@&$*&.oo=$&%@*&=%@@$&@@&&@&*=@$==%-&&.oo@@&%@@@@@%$@@@&",
"*=@@%*&&=@*@@&.oo*&&&@=@%%==&@%*%%=%=&*;--=@-%.oo@$&$&&$%$@$@%#@",
"               oo                              oo               ",
"XXXXXXXXXXXXXXXooXXXXXXXXXXXXXXXXXXXXXXXXXXXXXXooXXXXXXXXXXXXXXX",
"o=&&&&-&&%&=%$-@;&&=-*--@$=&@*Xoo&@@&@@$%$&&*++@@&&$%*-$&$%$=*Xo",
"o**&*=&*-@&$--&**$=**@-&=&&$@&.oo=&$&@@*@@@@@OO@@%@@*&$*%%*$*%.o",
"o**@*=*;*=--&&&=&*@*==&*%*&*&&.oo%*&%@@&@+%$$@@@%@@&#-$%%@%-&&.o",
"o=%*&@*%*&*$&*%&==&&&&&=%@&%&%.oo$%%%$&%@@@@@@%-@*&&@%$*-*$&%$.o",
"o%&%$&*&&@=*$*=;-==%=@*$@@@=@#.oo+@@@@@&%**$%$@@%&%*@@@%&%%$@@.o",
"o%@$$%%&$%-==-%*&*%$&%%$@=$$+@.oo@@$@##@@&=%*=@%&%&%&-@&&=&%@%.o",
"o@%*@*&&*=$*$&&@@&%&&%%&$%@@@%.oo%&@#$*=%*&%-%==$=%$%=&&*@&=$&.o",
"o=&@&=&;=-&&@*$%&=@=%+$@+@@%@@.oo@%&$*%@=&%&%*&-%@&*&&*@%-&@=&.o",
"o&&=-&&-$%$$%@*%@&@@&$&+%@@@&=.oo$=&%&&&&%&$-*&%$$-%&@*$%*&&$&.o",
"o                              oo                              o",
"oXXXXXXXXXXXXXXXXXXXXXXXXXXXXXXooXXXXXXXXXXXXXXXXXXXXXXXXXXXXXXo",
"@@+$$+%@$++++&Xoo+@&+@O&*@&*%$---%&&$@&@&@&*&$Xoo*@%@%*&-@@%@%=;",
"@&@-@%$@@%@+@O.oo%$@%*-&&&@-:%-=-*@&&@%@@@&-$*.oo$@=&@@%%*@&%%%-",
"&@@@&=+$++@%+@.oo@@@&&@-*&&&%$@&*@$%@@=@=-@-%$.oo@***&*&=-$@&@*@",
"*=%:=&@$*$%@%@.oo%@&-%==&-:%:=$%-&@$@%%#&@@&@&.oo$@@$$**-*&&:-&*",
"*=---&-::*-**:.oo&:*=*:-*&**&&*@@@$@&@@&$@@$&&.oo@%@**:-$&=;;%&;",
"=-&=&**=%-&&%*.oo-=:*-*-:*&%*&@-$@O@@%+@+@%&&%.oo@=-:$%*-@@&=$*-",
"&*%&&;:*%*&*-$.oo&-*=-&&@%&$*@@+@&O@@$@&&--%::.oo@%@&@@&&%@@$@&*",
"&%@*=%&&*-*:%%.oo&**%%$&&@@$O$@@@%@@@%@-=&-%@*.oo@@$%*@&&@&$&-%%",
"%@%=$&$=&&@%&@.oo$&$&@$%@@@*&@@%$@&%%*=$@*@*%@.oo*&*O%+@@$%@&%%%",
"               oo                              oo               ",
"XXXXXXXXXXXXXXXooXXXXXXXXXXXXXXXXXXXXXXXXXXXXXXooXXXXXXXXXXXXXXX",
"o&*&$&&@@%&%&%&&@&+%%@@%@@%$&$Xoo-&&@%$*$=%@%*%%%&%*=@@&&@=@&@Xo",
"o@%+$@@&+%*@@@@@&@@@@&@*$%$@@%.oo&*&&%@$@@@$@@*@%&$@@$@$%@@%%@.o",
"o@$@%@+*$*@@@&@@&%@%$@$@&*%&-&.oo&@%%&&@+&@&**$&&%@%&%*@%@%$$%.o",
"o@@&&%@O@@*-%#*$&%*%@*$&*-::=*.oo$%$$&&%@@&%@&=@$#*&&$@@@$#$&$.o",
"o%&@$$@@@&%$=%%%@&%*:-:-%-=&$&.oo$*@&@@%&$@@@@@@@$@%@%&&&&&%&%.o",
"o@$&&@%*@&&$&$@=:&&&-$=$*$$*$$.oo%@&%&$=&$*-&&%@$%%@+$**$&%$@%.o",
"o&$$@%$@@$@$$%&&&&&&&$=$&%&&-%.oo-@*&&&%%%$@&*$@@&%&$@+%@@&$@%.o",
"o&&@*@$-%*@%&$&*$*@&&*=*&@==$$.oo&&%$&%%%%%*$&@%%**%@@@@@@%*@=.o",
"o                              oo                              o"
};
